# xmcd CD database file
# Copyright (C) 1993-1998 Ti Kan
# 
# Track frame offsets:
#     150
#     21262
#     36075
#     62250
#     86662
#     96600
#     122962
#     137625
#     157387
#     169650
#     191062
#     208822
# 
# Disc length: 3311 seconds
# 
# Revision: 1
# Processed by: cddbd v1.4b41PL1 Copyright (c) Steve Scherf et al.
# Submitted via: DiscPlay 4.0.4
# 
DISCID=b00ced0c
DTITLE=Little Anthony and Sugar Ray - Take It From Me
DYEAR=1900
DGENRE=
TTITLE0=Take It From Me
TTITLE1=Girl From Idaho
TTITLE2=Let Your Conscience Be Your Guide
TTITLE3=Look Like Twins
TTITLE4=Ja-To-Mi
TTITLE5=Dark Road
TTITLE6=Must Have Been The Devil
TTITLE7=Worried Life Blues
TTITLE8=Runnin' Around
TTITLE9=Hard Hearted Woman
TTITLE10=Let Me Live
TTITLE11=Danger Zone
EXTD=
EXTT0=
EXTT1=
EXTT2=
EXTT3=
EXTT4=
EXTT5=
EXTT6=
EXTT7=
EXTT8=
EXTT9=
EXTT10=
EXTT11=
PLAYORDER=
